Coordinates
version=1
nRows=17
nColumns=23
inDegrees=yes

Units are S.I. units (second, meters, Newtons, ...)
Angles are in degrees.

endheader
time	pelvis_tilt	pelvis_list	pelvis_rotation	pelvis_tx	pelvis_ty	pelvis_tz	hip_flexion_r	hip_adduction_r	hip_rotation_r	knee_angle_r	knee_angle_r_beta	ankle_angle_r	subtalar_angle_r	mtp_angle_r	hip_flexion_l	hip_adduction_l	hip_rotation_l	knee_angle_l	knee_angle_l_beta	ankle_angle_l	subtalar_angle_l	mtp_angle_l
    123.00444400	     15.89404807	      8.49999842	      3.72729513	      0.03307723	      1.26788794	      0.19942115	     20.39103152	    -18.41541653	    -12.74819539	     43.86428018	      0.76557611	    -23.00954788	      0.00000000	      0.00000000	     50.65156958	     -7.06690345	     -5.06788305	    116.11979908	      2.02667282	     -4.26454347	      0.00000000	      0.00000000
    123.01333300	     15.78509172	      8.72883640	      3.50413075	      0.03277424	      1.26758337	      0.19934981	     19.57052382	    -18.46783025	    -12.55575948	     43.23893823	      0.75466184	    -23.29824058	      0.00000000	      0.00000000	     52.13356174	     -7.04714567	     -5.42094068	    116.60891561	      2.03520951	     -4.10852902	      0.00000000	      0.00000000
    123.02222200	     15.51890020	      8.66556750	      3.37346950	      0.03254504	      1.26702318	      0.19887658	     18.99448023	    -18.28528896	    -12.47626195	     42.79596224	      0.74693045	    -24.10417661	      0.00000000	      0.00000000	     53.80092886	     -7.13505838	     -5.51241739	    117.03253397	      2.04260305	     -3.63187329	      0.00000000	      0.00000000
    123.03111100	     15.60886698	      8.81217295	      3.14833542	      0.03207167	      1.26681095	      0.19857918	     18.20254094	    -18.33873257	    -12.27707449	     42.76911452	      0.74646187	    -24.09731231	      0.00000000	      0.00000000	     54.90387855	     -7.12849313	     -5.85499976	    117.15329776	      2.04471078	     -3.57447091	      0.00000000	      0.00000000
    123.04000000	     15.30633805	      8.67244969	      3.03738111	      0.03201175	      1.26642956	      0.19801042	     17.85062944	    -18.11170551	    -12.06942197	     42.79523058	      0.74691768	    -24.42135612	      0.00000000	      0.00000000	     56.35083048	     -7.21838429	     -5.94982940	    117.16937766	      2.04499142	     -2.85679064	      0.00000000	      0.00000000
    123.04888900	     15.29362624	      8.60108403	      2.89510308	      0.03168265	      1.26623875	      0.19746219	     17.35220039	    -18.00173385	    -11.85031756	     43.21155594	      0.75418393	    -24.37144360	      0.00000000	      0.00000000	     57.36465247	     -7.25319622	     -6.12298645	    116.94119992	      2.04100897	     -2.56478786	      0.00000000	      0.00000000
    123.05777800	     15.34873101	      8.46138340	      2.80291217	      0.03127992	      1.26623292	      0.19679758	     16.86444192	    -17.84768666	    -11.61591293	     43.83674557	      0.76509554	    -24.31008917	      0.00000000	      0.00000000	     58.18433038	     -7.24062188	     -6.21451789	    116.50770108	      2.03344299	     -2.27046427	      0.00000000	      0.00000000
    123.06666700	     15.40839102	      8.24414907	      2.77765088	      0.03107493	      1.26663682	      0.19616958	     16.35632034	    -17.62040706	    -11.43139237	     44.45602309	      0.77590398	    -24.30092812	      0.00000000	      0.00000000	     58.82659522	     -7.24290645	     -6.27448898	    115.83162754	      2.02164328	     -2.03901272	      0.00000000	      0.00000000
    123.07555600	     15.22424190	      8.14295591	      2.60093103	      0.03080962	      1.26606219	      0.19546088	     16.56433223	    -17.56715824	    -10.88635532	     45.98775788	      0.80263779	    -23.18928133	      0.00000000	      0.00000000	     59.60096222	     -7.24260507	     -6.52247662	    115.14178930	      2.00960333	     -1.24024605	      0.00000000	      0.00000000
    123.08444400	     15.35525495	      7.79285768	      2.59949523	      0.03041925	      1.26621092	      0.19459771	     16.32041719	    -17.29800814	    -10.69626760	     47.29175645	      0.82539686	    -23.09702737	      0.00000000	      0.00000000	     59.95813148	     -7.22299271	     -6.42540126	    114.20744309	      1.99329591	     -0.99161821	      0.00000000	      0.00000000
    123.09333300	     15.46539901	      7.45659833	      2.60320038	      0.03008962	      1.26631541	      0.19373924	     16.22259967	    -17.06553068	    -10.44686045	     48.85834505	      0.85273899	    -22.71894583	      0.00000000	      0.00000000	     60.17034051	     -7.18302678	     -6.37255137	    113.10137048	      1.97399130	     -0.67249466	      0.00000000	      0.00000000
    123.10222200	     15.46842133	      7.43086101	      2.46003758	      0.02985918	      1.26647467	      0.19315433	     16.44721404	    -17.13648505	     -9.85021227	     50.74680175	      0.88569878	    -21.45581279	      0.00000000	      0.00000000	     60.17676125	     -7.06700601	     -6.72651351	    111.72497160	      1.94996861	     -0.21540142	      0.00000000	      0.00000000
    123.11111100	     15.62687966	      6.85876509	      2.55861154	      0.02956817	      1.26669896	      0.19200573	     16.41962391	    -16.72736944	     -9.75049489	     52.49277702	      0.91617179	    -21.42232012	      0.00000000	      0.00000000	     60.09295278	     -7.04216455	     -6.41028908	    110.33726709	      1.92574860	      0.04598932	      0.00000000	      0.00000000
    123.12000000	     15.77945801	      6.86771152	      2.42396483	      0.02934683	      1.26702681	      0.19142128	     16.67058238	    -16.90198549	     -9.22245015	     54.71005264	      0.95487055	    -20.19566174	      0.00000000	      0.00000000	     59.58594071	     -6.88497497	     -6.82520613	    108.63858288	      1.89610097	      0.44268530	      0.00000000	      0.00000000
    123.12888900	     15.95684179	      6.21470413	      2.56349402	      0.02921032	      1.26726313	      0.19018936	     16.76862597	    -16.46215723	     -9.19849057	     56.69665233	      0.98954326	    -20.21919771	      0.00000000	      0.00000000	     59.17181879	     -6.87690793	     -6.44251503	    106.99393353	      1.86739642	      0.74352458	      0.00000000	      0.00000000
    123.13777800	     16.18603771	      5.83797664	      2.55022668	      0.02904131	      1.26752572	      0.18914946	     17.00169299	    -16.32483703	     -8.97203135	     58.97572579	      1.02932059	    -19.61933142	      0.00000000	      0.00000000	     58.42391074	     -6.83400045	     -6.42895701	    105.13226180	      1.83490412	      1.04553587	      0.00000000	      0.00000000
    123.14666700	     16.48770363	      5.84963383	      2.34810246	      0.02892436	      1.26816487	      0.18856367	     17.29943190	    -16.51987221	     -8.36651790	     61.41603315	      1.07191199	    -18.27010624	      0.00000000	      0.00000000	     57.23145550	     -6.71978539	     -6.92014525	    102.95133165	      1.79683971	      1.35124464	      0.00000000	      0.00000000
